# xmcd
#
# Track frame offsets:
#	150
#	6535
#	34965
#	68525
#	130153
#	159413
#	194285
#	229422
#	271700
#
# Disc length: 3950 seconds
#
# Revision: 1
# Processed by: cddbd v1.5PL3 Copyright (c) Steve Scherf et al.
# Submitted via: EasyCDDAExtractor 6.5.0.1
#
DISCID=750f6c09
DTITLE=BAPS - Rasiyo Raas Rame
DYEAR=1995
DGENRE=Religious
TTITLE0=Manglacharan
TTITLE1=Bawa Nand tane darbar
TTITLE2=Soneri Moliyu Sundar
TTITLE3=Juo Juo ne Ha Ha Re
TTITLE4=Sonana Bor Jhule
TTITLE5=Vala RoomZoom Karata Kan
TTITLE6=Sahajanand Swami Antaryami
TTITLE7=Manasno Avator Mogho
TTITLE8=Dekhat Bad Bhaglag
EXTD=
EXTT0=
EXTT1=
EXTT2=
EXTT3=
EXTT4=
EXTT5=
EXTT6=
EXTT7=
EXTT8=
PLAYORDER=
